Results
version=1
nRows=10
nColumns=55
inDegrees=yes
endheader
time	/jointset/boatJoint/bJoint_3/value	/jointset/boatJoint/bJoint_3/speed	/jointset/boatJoint/bJoint_4/value	/jointset/boatJoint/bJoint_4/speed	/jointset/seatJoint/seatpos/value	/jointset/seatJoint/seatpos/speed	/jointset/starboardlockJoint/slocangle/value	/jointset/starboardlockJoint/slocangle/speed	/jointset/starboardoarJoint/soarinout/value	/jointset/starboardoarJoint/soarinout/speed	/jointset/portlockJoint/plocangle/value	/jointset/portlockJoint/plocangle/speed	/jointset/portoarJoint/poarinout/value	/jointset/portoarJoint/poarinout/speed	/jointset/hipJoint/hipangle/value	/jointset/hipJoint/hipangle/speed	/jointset/knee_Joint/kneeangle/value	/jointset/knee_Joint/kneeangle/speed	/jointset/foot_Joint/footangle/value	/jointset/foot_Joint/footangle/speed	/jointset/lbackJoint/lbackangle/value	/jointset/lbackJoint/lbackangle/speed	/jointset/upper_arm_left_Joint/uarmleft_out/value	/jointset/upper_arm_left_Joint/uarmleft_out/speed	/jointset/upper_arm_left_Joint/uarmleft_trn/value	/jointset/upper_arm_left_Joint/uarmleft_trn/speed	/jointset/upper_arm_left_Joint/uarmleft_up/value	/jointset/upper_arm_left_Joint/uarmleft_up/speed	/jointset/lower_arm_left_Joint/se_inout/value	/jointset/lower_arm_left_Joint/se_inout/speed	/jointset/lower_arm_left_Joint/se_updown/value	/jointset/lower_arm_left_Joint/se_updown/speed	/jointset/handle_left_Joint/handleleft_out/value	/jointset/handle_left_Joint/handleleft_out/speed	/jointset/handle_left_Joint/handleleft_trn/value	/jointset/handle_left_Joint/handleleft_trn/speed	/jointset/handle_left_Joint/handleleft_up/value	/jointset/handle_left_Joint/handleleft_up/speed	/jointset/upper_arm_right_Joint/uarmright_out/value	/jointset/upper_arm_right_Joint/uarmright_out/speed	/jointset/upper_arm_right_Joint/uarmright_trn/value	/jointset/upper_arm_right_Joint/uarmright_trn/speed	/jointset/upper_arm_right_Joint/uarmright_up/value	/jointset/upper_arm_right_Joint/uarmright_up/speed	/jointset/lower_arm_right_Joint/pe_inout/value	/jointset/lower_arm_right_Joint/pe_inout/speed	/jointset/lower_arm_right_Joint/pe_updown/value	/jointset/lower_arm_right_Joint/pe_updown/speed	/jointset/handle_right_Joint/handleright_out/value	/jointset/handle_right_Joint/handleright_out/speed	/jointset/handle_right_Joint/handleright_trn/value	/jointset/handle_right_Joint/handleright_trn/speed	/jointset/handle_right_Joint/handleright_up/value	/jointset/handle_right_Joint/handleright_up/speed
      0.02000000	     -0.00000007	      0.00000000	     -0.00000011	      0.00000000	     -0.70938263	     -0.34659861	     68.43006441	     22.80420795	     14.47860352	      0.34492007	     78.07569739	     21.08829956	     18.07172437	      1.73910725	     21.37191100	    -11.99567256	    151.55866617	     42.25312765	     82.93057717	     30.25745509	      8.08016290	      3.25752897	    227.24155875	     53.31712000	     13.65797270	     -6.89838199	    181.46789423	      6.33087823	    -23.76654474	      6.07337441	    -29.87289064	     -4.07729610	    112.54865999	    -20.86401514	    -42.92911890	    -13.75919390	     35.88691732	    -12.40121926	     47.73502804	     55.69581632	   -131.21417562	     -3.45887223	      5.27821482	     -4.69025469	     -4.21997648	     29.08502446	     -8.12894664	      2.30900003	     82.42483878	     17.59414601	    -69.46650654	     15.71502268	     99.69505351	     -2.57144047
      0.02289729	     -0.00000855	     -0.00820015	     -0.00003471	     -0.02332373	     -0.71036571	     -0.32882937	     68.49851013	     24.45930756	     14.47894952	      0.06410982	     78.13601706	     20.39991846	     18.07557253	      0.98304164	     21.33802744	    -11.28665001	    151.67847135	     40.06064276	     83.01649879	     28.77399276	      8.09115771	      4.31247192	    227.40326847	     50.77408714	     13.66698441	    -19.11189073	    181.42388760	      9.06527614	    -23.74082831	     11.61340854	    -29.82157183	     41.43283776	    112.57611544	     -0.78098943	    -42.98084350	    -14.01158287	     35.97540463	    -39.21333399	     47.89594363	     53.88700307	   -131.23005829	     -3.14160129	      5.28024574	     -4.06737639	     -4.13726436	     27.62926805	     -8.12183271	      2.55875626	     82.35094545	     16.75470216	    -69.46786971	     15.77425754	     99.56277341	     -2.76070569
      0.02657466	     -0.00008826	     -0.03896270	     -0.00015982	     -0.04167143	     -0.71148998	     -0.27686843	     68.59251086	     26.68451477	     14.48054625	      1.03005858	     78.20750427	     18.24297672	     18.07806500	      0.42154685	     21.29962366	     -9.41150292	    151.81538836	     33.70490654	     83.11501202	     24.29340362	      8.10956842	      5.76307661	    227.60380512	     44.42054282	     13.70588752	    -35.65937406	    181.32060292	     12.09171775	    -23.68596895	     18.13769124	    -29.53772386	    116.14333740	    112.76155897	     33.52877940	    -43.16851425	    -15.75494376	     36.16320099	    -86.11754973	     48.08612967	     47.72678706	   -131.24703361	     -2.26369492	      5.28292530	     -3.48976056	     -4.04428145	     22.24762238	     -8.11221669	      2.65057116	     82.25522988	     14.33762497	    -69.47284799	     14.54687331	     99.39902050	     -4.35845145
      0.03000000	     -0.00030044	     -0.08825032	     -0.00030424	     -0.03937407	     -0.71230958	     -0.19647516	     68.68756959	     28.81800196	     14.48729965	      3.10368701	     78.26472780	     14.96597922	     18.07888709	      0.08340221	     21.27186329	     -6.63076801	    151.91513467	     23.90491064	     83.18699796	     17.27414263	      8.13228371	      7.58294821	    227.77604692	     35.40045747	     13.77362463	    -52.47071041	    181.17452483	     14.33488822	    -23.61403614	     23.80313887	    -28.99569057	    203.15316289	    113.13756931	     74.27544196	    -43.50337769	    -18.65155637	     36.44557137	   -142.76724933	     48.23777697	     38.04677457	   -131.25962826	     -1.21359751	      5.28778953	     -3.29751836	     -3.98218599	     13.38353014	     -8.10306350	      2.68928906	     82.17052797	     10.70094251	    -69.48592001	     11.87850472	     99.26238081	     -7.21201685
      0.03367737	     -0.00074638	     -0.15548046	     -0.00041513	     -0.01871804	     -0.71283710	     -0.08906909	     68.79750118	     30.89982586	     14.50446297	      6.38701408	     78.31187217	     10.61289290	     18.07884040	     -0.05074234	     21.25410180	     -2.99185621	    151.97930621	     10.83306165	     83.23340801	      7.84120543	      8.16416558	      9.71200255	    227.93600216	     23.88325755	     13.88374955	    -70.76052918	    180.96198158	     16.62001532	    -23.51574648	     29.63016979	    -28.05841567	    307.06952994	    113.81608335	    123.42518016	    -44.07026661	    -22.95892201	     36.90159265	   -211.86553283	     48.36188751	     25.24734032	   -131.27004731	      0.18954430	      5.29778791	     -3.32952855	     -3.95437390	      1.70484732	     -8.09277875	      2.98712298	     82.09112333	      5.61210459	    -69.51412509	      8.08150346	     99.14528241	    -11.06435019
      0.03734355	     -0.00145020	     -0.22966625	     -0.00043442	      0.00795803	     -0.71295732	      0.02417058	     68.91380876	     32.44008769	     14.53558291	     10.82331727	     78.34224572	      5.89010736	     18.07916583	      0.35003444	     21.25006575	      0.81103088	    151.99392737	     -2.93951893	     83.24399312	     -2.12848804	      8.20288219	     11.25923020	    228.06656049	     11.99180404	     14.02926062	    -87.62540302	    180.69372773	     19.56494368	    -23.39669056	     35.29071200	    -26.73875002	    413.22526125	    114.81185046	    174.07951486	    -44.85892697	    -28.53210415	     37.54525492	   -283.91758872	     48.44281963	     11.81690729	   -131.27645371	      2.21713079	      5.31481553	     -3.32908478	     -3.96949596	     -9.90306658	     -8.08073432	      3.60739916	     82.02331580	     -0.36705286	    -69.55839550	      4.27557447	     99.06235274	    -15.06619078
      0.04000000	     -0.00213682	     -0.28790221	     -0.00039196	      0.02291823	     -0.71278210	      0.10784325	     69.00094028	     33.08338508	     14.56971318	     15.02774151	     78.35305376	      2.20952593	     18.08109063	      1.18864472	     21.25594962	      3.62428792	    151.97261714	    -13.11697081	     83.22856676	     -9.49268289	      8.23349612	     11.66923012	    228.14239795	      3.22018206	     14.15323947	    -98.68537464	    180.46530806	     22.46043297	    -23.29762001	     39.28107927	    -25.53735332	    491.45274981	    115.75438589	    211.67460793	    -45.57056749	    -33.54676269	     38.15152476	   -338.15407477	     48.47472836	      1.70976575	   -131.27728809	      4.33678618	      5.33327904	     -3.19714383	     -4.00663390	    -17.99531515	     -8.07053128	      4.06381994	     81.97849958	     -5.25050730	    -69.60085309	      1.71333709	     99.02238457	    -18.06264191
      0.04366618	     -0.00333679	     -0.36462618	     -0.00028831	      0.03101374	     -0.71218825	      0.21232885	     69.12239795	     32.94108331	     14.63651924	     21.38243697	     78.35196788	     -2.68973843	     18.08815718	      2.63863905	     21.27596010	      7.17352844	    151.90037293	    -25.83593520	     83.17633303	    -18.66240676	      8.27593040	     11.35490711	    228.22235247	     -7.47492054	     14.34355465	   -112.09057500	    180.10515929	     27.18026390	    -23.14335306	     44.95208945	    -23.54792791	    590.69514696	    117.38532405	    259.13095572	    -46.73606051	    -40.26014071	     39.21202743	   -407.52669261	     48.48395131	    -10.93460114	   -131.27073940	      7.74252631	      5.36928026	     -2.61805639	     -4.09001678	    -26.78880025	     -8.05399862	      5.11040757	     81.91656265	    -12.20482845	    -69.67270139	     -0.99140411	     98.99051410	    -21.26332246
      0.04857118	     -0.00533783	     -0.44748098	     -0.00015944	      0.01741276	     -0.71087516	      0.31637165	     69.27921357	     30.60757137	     14.76153699	     29.48822473	     78.32478415	     -8.19236790	     18.10536899	      4.31419047	     21.32057966	     10.81178744	    151.74052609	    -38.52979868	     83.06110575	    -27.71801124	      8.32821504	      9.76401661	    228.29840925	    -17.29395145	     14.62229693	   -126.43923417	    179.54998778	     33.97293077	    -22.90291732	     53.20491519	    -20.38357135	    693.92515594	    120.14139993	    307.42363312	    -48.54854319	    -46.62520090	     41.05134274	   -479.41823666	     48.44723991	    -23.10050746	   -131.24481660	     12.37659546	      5.43444219	     -0.91524559	     -4.23712826	    -31.95728837	     -8.02261260	      7.98337299	     81.81861689	    -21.17319984	    -69.78162348	     -2.53026109	     98.97353814	    -22.45274405
      0.05000000	     -0.00599158	     -0.46729382	     -0.00014004	      0.00955622	     -0.71040637	      0.33928640	     69.32217817	     29.50294503	     14.80526037	     31.69804368	     78.31208528	     -9.56543526	     18.11182191	      4.70821649	     21.33663234	     11.64155680	    151.68342547	    -41.33348337	     83.02005781	    -29.69192657	      8.34170395	      9.10763814	    228.31675694	    -19.22635942	     14.70679125	   -129.86192371	    179.37426468	     35.97958584	    -22.82509237	     55.74100645	    -19.37479207	    717.64802768	    121.06079991	    318.27056854	    -49.11407060	    -47.87601375	     41.67864178	   -495.83314862	     48.42890633	    -25.62209639	   -131.23307886	     13.69334724	      5.45642318	     -0.23468031	     -4.28295731	    -32.09355655	     -8.01037615	      9.17419687	     81.78403280	    -23.70976224	    -69.81370899	     -2.56354663	     98.97085805	    -22.13515893
